PathFileType	4	(X/Y/Z)	/Users/niels/Desktop/University/Third Semester/Perception and Action/Exam/Gymnastics Motion Tracking/Code for Gym Tracking/Analyzed Data/Webcam_Backflip/id6_1_baseline_Sports2D/id6_1_baseline_Sports2D_px_person00.trc
DataRate	CameraRate	NumFrames	NumMarkers	Units	OrigDataRate	OrigDataStartFrame	OrigNumFrames
29.702970297029704	29.702970297029704	10	22	m	29.702970297029704	12	101
Frame#	Time	Hip			RHip			RKnee			RAnkle			RBigToe			RSmallToe			RHeel			LHip			LKnee			LAnkle			LBigToe			LSmallToe			LHeel			Neck			Head			Nose			RShoulder			RElbow			RWrist			LShoulder			LElbow			LWrist		
		X1	Y1	Z1	X2	Y2	Z2	X3	Y3	Z3	X4	Y4	Z4	X5	Y5	Z5	X6	Y6	Z6	X7	Y7	Z7	X8	Y8	Z8	X9	Y9	Z9	X10	Y10	Z10	X11	Y11	Z11	X12	Y12	Z12	X13	Y13	Z13	X14	Y14	Z14	X15	Y15	Z15	X16	Y16	Z16	X17	Y17	Z17	X18	Y18	Z18	X19	Y19	Z19	X20	Y20	Z20	X21	Y21	Z21	X22	Y22	Z22
12	0.40399999999999997	0.9251216916556769	-0.726191326175408	0.0	0.9155224065085483	-0.7253576025541972	0.0	0.9200273146966157	-0.9694677209710986	0.0	0.8992491639996775	-1.0875371300177328	0.0	0.9731517658931462	-1.089918879328935	0.0	0.9544310582478839	-1.148958315491676	0.0	0.8759303329584941	-1.091023673828858	0.0	0.9505471116405438	-0.7258446472293704	0.0	0.9291916325986107	-0.9638319211458546	0.0	0.9085760558174267	-1.0797365730988806	0.0	1.0000589314989845	-1.065672466810706	0.0	0.9869514937971664	-1.07091714291993	0.0	0.877212443606519	-1.072803016009246	0.0	0.9556419533380295	-0.3960253272425051	0.0	1.0020666481651004	-0.2623809062061051	0.0	1.011765860253808	-0.3416249958989407	0.0	0.9014686774659689	-0.4274360938229539	0.0	0.8151993709962424	-0.5665995855510009	0.0	0.7631901318742185	-0.7064577171764292	0.0	0.9722552193900174	-0.45711857148730384	0.0	0.9926053613055665	-0.6035548055218166	0.0	1.0846206203022344	-0.5993011893410548	0.0
13	0.43766666666666665	0.9248230698985223	-0.723067221473202	0.0	0.9139642059664327	-0.7221438461990614	0.0	0.9190077040983774	-0.9688705066341328	0.0	0.897936005723303	-1.08567763678406	0.0	0.9731517988607858	-1.089918941591673	0.0	0.9544310582478833	-1.1489583154916752	0.0	0.8756901088064825	-1.0890617931875664	0.0	0.9506699164898683	-0.7229803652369747	0.0	0.9291710932416033	-0.9630682264698733	0.0	0.9065941120820141	-1.07728012533403	0.0	0.9999860189257823	-1.0652262006985325	0.0	0.9807552030972385	-1.0691829639360986	0.0	0.8756278475228697	-1.0698659128609647	0.0	0.9560556242956683	-0.3958162532308731	0.0	1.002574858038337	-0.26173971525021344	0.0	1.0108543272025077	-0.34100517573323275	0.0	0.8991094925986323	-0.4255602874485587	0.0	0.8009713827254701	-0.5553770351845364	0.0	0.7286755246671134	-0.6840450278855881	0.0	0.9765583584726232	-0.4599185750445209	0.0	1.0032491472622196	-0.6007578632274762	0.0	1.0911438545247427	-0.578285050261199	0.0
14	0.47133333333333327	0.9245976157723488	-0.7203534214536	0.0	0.9120278605108557	-0.7195311104753993	0.0	0.9178465643905408	-0.9689047419390961	0.0	0.8966551948287789	-1.0840450765806902	0.0	0.9731518524544143	-1.0899189496119863	0.0	0.9544310582478823	-1.1489583154916736	0.0	0.8755722189170372	-1.087176876679132	0.0	0.9506176471057066	-0.7209618130547552	0.0	0.9288909954296817	-0.9632469652518851	0.0	0.9048076125445563	-1.0751130542203915	0.0	1.000131298935051	-1.0648950374235924	0.0	0.9738278596010893	-1.0677418525393216	0.0	0.8742516848909316	-1.067065355029792	0.0	0.9568245236611373	-0.39564480867983404	0.0	1.0030246538851373	-0.26106310260583926	0.0	1.0097382869474443	-0.34038288665870226	0.0	0.8968856304182629	-0.42368963424698336	0.0	0.7890809913045242	-0.545412392509274	0.0	0.7012548691391414	-0.6617186510121347	0.0	0.9813834320591052	-0.46247340901710404	0.0	1.0127888108730718	-0.5976588088464774	0.0	1.0954647313771897	-0.5607540830378775	0.0
15	0.505	0.9246460330437529	-0.7182424891548274	0.0	0.9100821948141965	-0.7175492158295275	0.0	0.9168098828761003	-0.9691781289844942	0.0	0.8955841560050338	-1.0827120423769079	0.0	0.9731519209832981	-1.0899188209892372	0.0	0.9544310582478811	-1.1489583154916716	0.0	0.8754026651831979	-1.085526725595466	0.0	0.9506868822978989	-0.7197014340681781	0.0	0.9280686257473837	-0.9637744506707961	0.0	0.9031448575538111	-1.0733560126828339	0.0	1.0003256431201328	-1.0647012748445768	0.0	0.9675087458419739	-1.066766095544803	0.0	0.8729696475869277	-1.0645723007197496	0.0	0.9577884608277911	-0.3954906964485877	0.0	1.0033600053935614	-0.2604696098281583	0.0	1.0085717296238679	-0.33982580596730627	0.0	0.8951103703147094	-0.4218967142344366	0.0	0.7795074267077352	-0.5368217627751831	0.0	0.68047738424703	-0.6414426521425982	0.0	0.9862873826242995	-0.464539788832432	0.0	1.0206089138081806	-0.5948610826457983	0.0	1.0979457915952604	-0.5470339873873161	0.0
16	0.5386666666666666	0.9250420725577994	-0.7167954763295432	0.0	0.9084259590409445	-0.716086212393202	0.0	0.9161262874932271	-0.9690217389921509	0.0	0.894834377378432	-1.08181228705759	0.0	0.9731519808996106	-1.0899184454247812	0.0	0.95443105824788	-1.1489583154916696	0.0	0.874902489464412	-1.0845051025442773	0.0	0.9511261639440647	-0.7189684203612464	0.0	0.9268324904574744	-0.96387231467919	0.0	0.9015453363518767	-1.0720956622132225	0.0	1.0004851811769244	-1.0646173225352136	0.0	0.9628417011834036	-1.066250268587832	0.0	0.8713225037465305	-1.0625359477925351	0.0	0.9586865745729681	-0.39535736416661327	0.0	1.0034758812941356	-0.2600789194529071	0.0	1.0074281414282358	-0.3393781567802563	0.0	0.8937729551243623	-0.4203306964439866	0.0	0.7721593467608628	-0.529608782139246	0.0	0.665437653168841	-0.6243821932115848	0.0	0.9907538389017662	-0.46606559306307915	0.0	1.0266281282415644	-0.5928480268777083	0.0	1.0987448207746766	-0.5369743704572	0.0
17	0.5723333333333332	0.9257398984633216	-0.7159708972861851	0.0	0.907233558235247	-0.7149753543612728	0.0	0.9158660720964137	-0.9680574327886151	0.0	0.8943906847144948	-1.08137971637816	0.0	0.9731519807888873	-1.089917717132781	0.0	0.9544310582478799	-1.1489583154916692	0.0	0.8739179535961791	-1.0843074507337729	0.0	0.9520146674231212	-0.7185338922206084	0.0	0.9256160307285274	-0.9632410962859749	0.0	0.9002152509061934	-1.0713682559643314	0.0	1.0005844214066943	-1.0646023075482336	0.0	0.9600733743032257	-1.0660683995193412	0.0	0.8691141771609112	-1.0610939163999864	0.0	0.9593604398913281	-0.3952696726994724	0.0	1.0032776725826806	-0.2599466141072859	0.0	1.0063029970445527	-0.3390169226883736	0.0	0.8927220516842265	-0.41914098883673173	0.0	0.7668452420772792	-0.5236839618851481	0.0	0.6550454168778886	-0.6109781100065835	0.0	0.9943358493213738	-0.46712814271819636	0.0	1.0309106499565166	-0.5917904211015984	0.0	1.0979746440853508	-0.5302302003531612	0.0
18	0.606	0.9265836397948685	-0.7156528171088283	0.0	0.9065773978752815	-0.714102541071446	0.0	0.9159550114161606	-0.9664709913906956	0.0	0.8941200767280679	-1.081313615037404	0.0	0.9731518353367683	-1.0899166104047486	0.0	0.9544310582478822	-1.1489583154916725	0.0	0.8725046061621878	-1.0847505965138957	0.0	0.9531902553044529	-0.718286576080673	0.0	0.9248228570347983	-0.9622154848504338	0.0	0.8994832585832153	-1.07118704295514	0.0	1.0006303618258539	-1.0646204848595733	0.0	0.9588397975206039	-1.066074396456736	0.0	0.8666339539397356	-1.060335113258581	0.0	0.9597761040428745	-0.3952042416509485	0.0	1.002731258637944	-0.260044219885614	0.0	1.005203529644115	-0.3386575615993732	0.0	0.8918992517587324	-0.4183677030005234	0.0	0.7632676071242595	-0.5188880512636631	0.0	0.6482418640748708	-0.601074715608788	0.0	0.9967770941673029	-0.46779357817781153	0.0	1.0335159625910741	-0.5915983000986395	0.0	1.095864999296963	-0.526329572238278	0.0
19	0.6396666666666666	0.9273976750326377	-0.7156537171486186	0.0	0.9064570847098649	-0.7134375258623569	0.0	0.9162500548636567	-0.9647641580980125	0.0	0.8938820264505852	-1.0814937228551096	0.0	0.9731514328717257	-1.0899153103212103	0.0	0.954431058247889	-1.1489583154916831	0.0	0.8708729322471593	-1.085485322708889	0.0	0.9543541164017829	-0.7181886385055571	0.0	0.9246369011727773	-0.9612907053058645	0.0	0.8995025110988498	-1.0715010001328753	0.0	1.0006443706424424	-1.0646470375458281	0.0	0.958576518769084	-1.0661529078128404	0.0	0.8644548204281701	-1.0602348350735473	0.0	0.9599375920316527	-0.3951058317712488	0.0	1.001914695674283	-0.2603085300638654	0.0	1.0042076032238687	-0.33825982677691385	0.0	0.8913089906795123	-0.4179315469278113	0.0	0.7610489870580069	-0.5151281997889985	0.0	0.6441206091965139	-0.5942286381921945	0.0	0.9980709544158198	-0.46806364473827755	0.0	1.034542625950103	-0.5920544144583707	0.0	1.0927518686561442	-0.5246770067833086	0.0
20	0.6733333333333333	0.92809070482213	-0.7157725763544132	0.0	0.9067557731364243	-0.7130005246036648	0.0	0.9165970899960136	-0.9633999439617786	0.0	0.893646126460925	-1.0817980994603107	0.0	0.97315067086504	-1.0899143916181202	0.0	0.9544310582479021	-1.1489583154917045	0.0	0.8693231437122819	-1.0862077070821494	0.0	0.9553062946289818	-0.7181990203844492	0.0	0.9250331408522855	-0.9607348353523456	0.0	0.9001621989168175	-1.0721162577177403	0.0	1.0006521997173972	-1.064667059365701	0.0	0.9587859349475697	-1.066228436596026	0.0	0.863165504864647	-1.060642944783967	0.0	0.9598587232843765	-0.3949727149832482	0.0	1.001006169449461	-0.26065698896281186	0.0	1.0034183558090501	-0.33788951868802364	0.0	0.890892429941732	-0.4177403338548119	0.0	0.7598001445870763	-0.5124659801194233	0.0	0.6419601699702999	-0.590018995601309	0.0	0.998453314750189	-0.4679473227355221	0.0	1.0341976026559334	-0.5928999165464591	0.0	1.0890036967701007	-0.5246388926631308	0.0
21	0.707	0.9286419456058633	-0.7159135325606782	0.0	0.9072347254345168	-0.7128150936052834	0.0	0.9168675522273102	-0.9626618350471527	0.0	0.89347400335195	-1.0820857536394806	0.0	0.9731495359524233	-1.0899149972936313	0.0	0.954431058247922	-1.1489583154917375	0.0	0.8681084488419128	-1.0867142778325227	0.0	0.9560185353827727	-0.7183084339301531	0.0	0.9258240176318778	-0.9606772851766354	0.0	0.9011644640398331	-1.0727904828900896	0.0	1.0006792430576457	-1.064672186280394	0.0	0.9591276045531328	-1.0662581513009677	0.0	0.8632266963908315	-1.0613584722797196	0.0	0.9595983757339398	-0.39486550893405975	0.0	1.0002036353764672	-0.2609690104900825	0.0	1.0029009603935968	-0.3376491270498218	0.0	0.8905738098356588	-0.41777188083731426	0.0	0.7592282358753786	-0.5110543067138033	0.0	0.6412711147904753	-0.5881988851657416	0.0	0.9983162072591435	-0.46755515324615887	0.0	1.032857216880537	-0.5939318350577018	0.0	1.0849590315181934	-0.525633404237548	0.0
